<svg width="13" height="25" viewBox="0 0 13 25" fill="none" xmlns="http://www.w3.org/2000/svg">
<path d="M8.07353 0.112612C5.70961 0.503002 4.13834 1.84685 3.54912 3.97898C3.42286 4.45946 3.3948 4.78228 3.36674 6.17117L3.33167 7.80781H1.79547H0.259277V10.1727V12.5375H1.80249H3.34569V18.7688V25H5.66051H7.97532V18.7688V12.5375H10.0376H12.1069L12.149 12.2147C12.184 11.9219 12.6049 7.91291 12.6049 7.83784C12.6049 7.82282 11.672 7.80781 10.5286 7.80781H8.45933L8.48037 6.41892C8.50142 5.21021 8.51545 5.01501 8.62768 4.9024C8.73991 4.78228 8.94334 4.76727 10.6759 4.74474L12.6049 4.72222V2.36486V0L10.6268 0.00750732C9.41331 0.0150146 8.41724 0.0525513 8.07353 0.112612Z" fill="white"/>
</svg>
