<svg width="24" height="26" viewBox="0 0 24 26" fill="none" xmlns="http://www.w3.org/2000/svg">
<g clip-path="url(#clip0_932_210)">
<path d="M6.98286 0.0757133C5.77382 0.153438 5.00069 0.317525 4.12886 0.671605C2.53324 1.31068 1.2584 2.64927 0.64976 4.32468C0.296093 5.27465 0.156271 6.0519 0.0740233 7.5805C-0.0246744 9.32499 -0.0246744 15.9748 0.0740233 17.6416C0.22207 20.2065 0.682659 21.5624 1.85881 22.8664C2.80466 23.9287 3.91501 24.5764 5.31323 24.8959C6.35778 25.1377 8.817 25.2154 13.2337 25.1723C17.7491 25.1204 18.2673 25.0773 19.501 24.6541C20.5127 24.3173 21.1707 23.8768 21.9931 23.0046C22.5853 22.3828 22.8074 22.0633 23.087 21.4846C23.5888 20.4397 23.8355 19.3083 23.926 17.6848C24.0247 15.9575 24.0247 9.31635 23.926 7.5805C23.7779 4.86012 23.2927 3.53016 21.9602 2.13111C20.6278 0.732059 19.3612 0.222528 16.7704 0.0670768C15.257 -0.0279206 8.45511 -0.0192841 6.98286 0.0757133ZM17.5106 2.40746C19.2707 2.61473 20.5538 3.4438 21.1707 4.77376C21.6395 5.76691 21.7135 6.35417 21.7957 9.55817C21.8369 11.3631 21.8369 13.7121 21.7957 15.5603C21.73 18.1943 21.6971 18.6779 21.549 19.2824C21.0062 21.4415 19.7395 22.521 17.4613 22.7714C15.2324 23.0132 6.88417 22.9269 5.71624 22.6505C3.70117 22.1755 2.58259 20.7592 2.2865 18.3325C2.1549 17.2357 2.1549 7.99503 2.2865 6.8637C2.59082 4.30741 3.70117 2.96881 5.94654 2.46792C6.92529 2.25201 15.7916 2.2002 17.5106 2.40746Z" fill="white"/>
<path d="M17.6671 4.58338C16.8528 5.16208 16.7295 6.23309 17.3874 6.9327C18.0537 7.63231 19.0735 7.49412 19.6328 6.6304C19.7973 6.37128 19.822 6.25036 19.7973 5.79259C19.7644 5.18799 19.6081 4.90296 19.1558 4.57475C18.7774 4.30699 18.0537 4.30699 17.6671 4.58338Z" fill="white"/>
<path d="M10.7251 6.25873C6.9581 7.10509 4.82788 11.3714 6.31657 15.0937C7.43514 17.9004 10.3796 19.5413 13.2172 18.9282C17.4858 18.0127 19.5338 12.8828 17.1568 9.07416C15.7504 6.82009 13.2007 5.69737 10.7251 6.25873ZM13.2665 8.63371C16.1534 9.63552 16.9183 13.5996 14.6483 15.7068C13.8752 16.4236 13.0033 16.7605 11.9423 16.7432C9.73809 16.7259 8.03555 14.9209 8.03555 12.5891C8.02733 9.73052 10.6675 7.7269 13.2665 8.63371Z" fill="white"/>
</g>
<defs>
<clipPath id="clip0_932_210">
<rect width="24" height="26" fill="white"/>
</clipPath>
</defs>
</svg>
