<svg width="23" height="27" viewBox="0 0 23 27" fill="none" xmlns="http://www.w3.org/2000/svg">
<path d="M7.59337 0.843229C6.05204 1.27866 4.82803 2.57746 4.18203 4.45434C3.81937 5.52041 3.6947 7.08197 3.87603 8.23813C4.25003 10.573 5.57603 12.4198 7.33837 13.0429C7.97304 13.2682 9.02704 13.2682 9.6617 13.0429C11.4807 12.3973 12.835 10.4528 13.1524 8.04293C13.2374 7.40479 13.1864 5.93332 13.0674 5.34023C12.597 3.05794 11.1464 1.29368 9.36137 0.828214C8.8457 0.700586 8.0807 0.700586 7.59337 0.843229ZM9.5767 2.85524C10.5287 3.29068 11.2767 4.28167 11.6224 5.57296C11.7924 6.18858 11.832 7.35224 11.7074 8.00539C11.5487 8.82371 11.2994 9.40179 10.829 10.0399C10.1547 10.9333 9.45204 11.3237 8.50004 11.3237C7.5537 11.3237 6.85104 10.9408 6.18237 10.0399C5.36637 8.95885 5.04337 7.52491 5.2757 6.03843C5.46837 4.82221 6.19937 3.59849 7.07204 3.04293C7.83704 2.55494 8.7777 2.48737 9.5767 2.85524Z" fill="white"/>
<path d="M17.8783 6.75907C17.6857 6.87168 17.5497 7.10442 17.493 7.41223C17.408 7.85517 17.5213 8.05787 18.9096 9.89721L20.2583 11.684H17C13.872 11.684 13.736 11.6915 13.5603 11.8342C13.464 11.9092 13.3507 12.0519 13.311 12.1495C13.209 12.3972 13.226 12.8927 13.3393 13.1254C13.5547 13.5684 13.515 13.5609 17.034 13.5609H20.2526L18.8926 15.3777C17.969 16.6089 17.51 17.2696 17.4873 17.4197C17.4307 17.7125 17.544 18.1029 17.7423 18.3282C17.8783 18.4783 17.9803 18.5158 18.207 18.5158H18.5016L20.5813 15.7531L22.6666 12.9978V12.6224V12.2471L20.5813 9.4843C18.6433 6.91673 18.479 6.71403 18.2693 6.684C18.1503 6.66898 17.969 6.69901 17.8783 6.75907Z" fill="white"/>
<path d="M3.706 15.8207C3.332 15.9033 2.652 16.2261 2.32333 16.4739C1.207 17.3222 0.459 18.621 0.141667 20.2802C0.00566667 20.9934 0 21.091 0 23.651C0 26.1285 0.00566667 26.3012 0.113333 26.5264C0.345667 27.0369 -0.266333 26.9994 8.5 26.9994C17.2663 26.9994 16.6543 27.0369 16.8867 26.5264C16.9943 26.3012 17 26.136 17 23.7186C17 20.9483 16.966 20.4979 16.694 19.5369C16.473 18.7561 16.1727 18.163 15.6683 17.4949C15.1357 16.7817 14.6257 16.3612 13.8833 16.0234L13.345 15.7757L8.67 15.7606C6.09733 15.7606 3.86467 15.7832 3.706 15.8207ZM13.192 17.7276C14.2347 18.0579 15.0563 19.0339 15.419 20.3928C15.5437 20.8507 15.555 21.0084 15.572 22.9979L15.589 25.1225H8.50567H1.41667V23.1856C1.41667 21.7516 1.43933 21.136 1.50167 20.7832C1.77367 19.2666 2.64633 18.0955 3.79667 17.7276C4.284 17.5699 12.6933 17.5699 13.192 17.7276Z" fill="white"/>
</svg>
