<svg width="25" height="26" viewBox="0 0 25 26" fill="none" xmlns="http://www.w3.org/2000/svg">
<g clip-path="url(#clip0_932_214)">
<path d="M9.84914 0.235977C5.87313 1.11177 2.47514 3.93184 0.96881 7.59267C0.19813 9.46687 0.0404913 10.2901 0.0404913 12.5847C0.0404913 14.9143 0.250677 15.9127 1.12645 17.892L1.58185 18.908L0.741109 21.9733C0.285707 23.6548 -0.047086 25.0736 0.00546039 25.1261C0.0580067 25.1787 1.5293 24.8634 3.26333 24.408L6.41611 23.5847L7.69474 24.1102C9.41125 24.8108 10.5147 25.021 12.5465 25.021C16.0321 25.021 18.8521 23.8475 21.3218 21.3602C23.8615 18.8029 25 16.0704 25 12.4971C25 10.1325 24.7373 8.99394 23.6513 6.80445C22.9682 5.40318 22.6004 4.89522 21.3042 3.61655C20.0256 2.35541 19.4826 1.95254 18.1339 1.30445C17.2407 0.866551 15.927 0.39362 15.2264 0.235977C13.685 -0.07931 11.2854 -0.07931 9.84914 0.235977ZM14.9286 2.33789C18.6244 3.28375 21.6896 6.27897 22.6354 9.88726C22.9857 11.2185 22.9682 13.7408 22.6179 15.107C21.8823 17.9796 19.7629 20.572 17.1181 21.8331C15.3665 22.6564 14.263 22.9191 12.4239 22.9191C10.8475 22.9191 9.44629 22.5863 7.81735 21.8506L6.66133 21.3076L4.87475 21.7981C3.89389 22.0608 3.05315 22.236 3.0006 22.1834C2.94806 22.1309 3.10569 21.3777 3.36843 20.5019C3.61364 19.6261 3.80631 18.8029 3.80631 18.6627C3.80631 18.5401 3.52606 17.857 3.17576 17.1564C0.618501 11.9541 2.72035 5.70095 7.92244 3.14362C10.0068 2.11018 12.7917 1.7949 14.9286 2.33789Z" fill="white"/>
<path d="M7.72982 6.80496C7.16933 7.03265 6.46871 7.96095 6.24101 8.78415C5.7681 10.5181 6.78399 12.6199 9.30621 15.1246C12.0036 17.8044 15.2089 19.1005 17.1356 18.2948C18.0814 17.8919 18.7295 17.1038 18.8171 16.228L18.9046 15.4749L17.3107 14.6867L15.7168 13.916L15.1914 14.5115C14.9111 14.8443 14.6834 15.1771 14.6659 15.2472C14.6659 15.3172 14.5083 15.4574 14.3156 15.5624C13.5274 15.9828 10.182 13.5132 9.60397 12.077C9.39379 11.5865 9.42882 11.499 9.93677 10.7809L10.4797 10.0102L9.93677 8.62652C9.21863 6.78744 8.7282 6.40211 7.72982 6.80496Z" fill="white"/>
</g>
<defs>
<clipPath id="clip0_932_214">
<rect width="25" height="26" fill="white"/>
</clipPath>
</defs>
</svg>
